<svg width="261" height="130" viewBox="0 0 261 130" fill="none" xmlns="http://www.w3.org/2000/svg">
<path d="M22.5902 32.5234C28.5546 32.5234 33.2018 34.4455 36.5319 38.2897C39.9117 42.0675 41.6017 47.4361 41.6017 54.3953C41.6017 61.3545 39.9117 66.756 36.5319 70.6003C33.2018 74.3782 28.5546 76.2671 22.5902 76.2671H12.8235V98.139H0V32.5234H22.5902ZM20.5772 63.4423C25.9949 63.4423 28.7037 60.4268 28.7037 54.3953C28.7037 48.3639 25.9949 45.3483 20.5772 45.3483H12.8235V63.4423H20.5772Z" fill="black"/>
<path d="M87.2294 32.5234V98.139H72.9894L57.7056 62.6469L53.9778 52.904H53.9033L54.2015 65.033V98.139H42.8691V32.5234H57.1091L72.3929 68.0155L76.1207 77.7584H76.1952L75.897 65.6295V32.5234H87.2294Z" fill="black"/>
<path d="M106.818 78.5274C101.226 78.5274 96.7978 76.4993 93.5323 72.443C90.3116 68.3868 88.7012 62.6604 88.7012 55.2637C88.7012 50.3724 89.4393 46.1968 90.9155 42.7371C92.4364 39.2177 94.4941 36.5633 97.0886 34.7737C99.7279 32.9246 102.792 32 106.281 32C109.815 32 112.812 32.9246 115.273 34.7737C117.778 36.5633 119.679 39.0686 120.976 42.2897C122.273 45.4512 122.922 49.0899 122.922 53.2058C122.922 54.3391 122.877 55.4426 122.788 56.5164C122.743 57.5304 122.698 58.3953 122.654 59.1112H99.7726C100.086 62.213 100.846 64.4499 102.054 65.8218C103.262 67.1341 104.85 67.7903 106.818 67.7903C108.518 67.7903 109.86 67.3429 110.844 66.4482C111.873 65.5534 112.633 64.3007 113.125 62.6902L122.251 66.7166C121.625 69.2816 120.529 71.4588 118.963 73.2483C117.442 74.9782 115.608 76.2905 113.461 77.1853C111.358 78.08 109.144 78.5274 106.818 78.5274ZM106.281 42.6476C102.658 42.6476 100.511 45.4214 99.8397 50.9689H112.119C111.627 45.4214 109.681 42.6476 106.281 42.6476ZM170.994 32.8948H182.938L172.806 77.6326H159.117L153.011 50.1636L147.107 77.6326H133.485L123.286 32.8948H135.297L140.933 65.9113L147.509 32.8948H158.782L165.291 65.9113L170.994 32.8948ZM199.947 78.5274C196.592 78.5274 193.483 77.8116 190.62 76.38C187.757 74.8887 185.364 72.7711 183.44 70.0272L188.808 61.6165C189.926 63.5253 191.403 65.1359 193.237 66.4482C195.115 67.7008 197.195 68.3272 199.477 68.3272C200.864 68.3272 202.004 68.0587 202.899 67.5219C203.794 66.985 204.241 66.1499 204.241 65.0165C204.241 64.2411 204.017 63.5849 203.57 63.0481C203.123 62.5112 202.228 62.0638 200.886 61.7059L196.189 60.4533C191.984 59.3199 188.987 57.6497 187.198 55.4426C185.453 53.1759 184.581 50.2232 184.581 46.5845C184.581 44.1389 185.14 41.8125 186.258 39.6054C187.377 37.3984 189.099 35.579 191.425 34.1474C193.751 32.7158 196.726 32 200.349 32C207.283 32 212.338 34.565 215.514 39.6949L210.079 47.9267C209.005 46.1372 207.618 44.7354 205.918 43.7213C204.219 42.7073 202.519 42.2002 200.819 42.2002C197.553 42.2002 195.921 43.3038 195.921 45.5108C195.921 46.2863 196.189 46.9723 196.726 47.5688C197.307 48.1653 198.358 48.6425 199.879 49.0004L205.985 50.611C209.43 51.5057 211.913 53.0566 213.434 55.2637C214.954 57.4111 215.715 60.0357 215.715 63.1376C215.715 67.492 214.395 71.1606 211.756 74.1431C209.161 77.066 205.225 78.5274 199.947 78.5274Z" fill="black"/>
<path d="M93.2313 86.7316C94.1148 86.7316 94.8864 86.9627 95.5462 87.425C96.2172 87.8873 96.7373 88.5509 97.1063 89.4158C97.4865 90.2808 97.6766 91.3246 97.6766 92.5475C97.6766 93.7703 97.4865 94.8142 97.1063 95.6791C96.7373 96.5441 96.2172 97.2077 95.5462 97.67C94.8864 98.1323 94.1148 98.3634 93.2313 98.3634C92.359 98.3634 91.5874 98.1323 90.9164 97.67C90.2566 97.2077 89.7365 96.5441 89.3563 95.6791C88.9873 94.8142 88.8027 93.7703 88.8027 92.5475C88.8027 91.3246 88.9873 90.2808 89.3563 89.4158C89.7365 88.5509 90.2566 87.8873 90.9164 87.425C91.5874 86.9627 92.359 86.7316 93.2313 86.7316ZM93.2313 89.4382C92.7392 89.4382 92.3534 89.6843 92.0738 90.1764C91.8054 90.6536 91.6712 91.4439 91.6712 92.5475C91.6712 93.6361 91.8054 94.4265 92.0738 94.9186C92.3534 95.4107 92.7392 95.6568 93.2313 95.6568C93.7346 95.6568 94.1204 95.4107 94.3888 94.9186C94.6684 94.4265 94.8081 93.6361 94.8081 92.5475C94.8081 91.4439 94.6684 90.6536 94.3888 90.1764C94.1204 89.6843 93.7346 89.4382 93.2313 89.4382ZM104.25 86.9552H107.202L104.183 98.1397H100.777L97.7577 86.9552H100.76L102.488 95.4778L104.25 86.9552ZM109.291 85.6579C108.71 85.6579 108.285 85.5162 108.016 85.2328C107.759 84.9346 107.631 84.4723 107.631 83.846C107.631 83.2047 107.759 82.7424 108.016 82.4591C108.285 82.1608 108.71 82.0117 109.291 82.0117C109.862 82.0117 110.281 82.1608 110.549 82.4591C110.818 82.7424 110.952 83.2047 110.952 83.846C110.952 84.4723 110.818 84.9346 110.549 85.2328C110.281 85.5162 109.862 85.6579 109.291 85.6579ZM110.717 86.9552V98.1397H107.866V86.9552H110.717ZM115.499 98.3634C114.459 98.3634 113.62 97.8564 112.982 96.8423C112.356 95.8283 112.043 94.4116 112.043 92.5922C112.043 91.3396 112.188 90.2808 112.479 89.4158C112.781 88.536 113.195 87.8724 113.72 87.425C114.257 86.9627 114.872 86.7316 115.566 86.7316C116.158 86.7316 116.662 86.9254 117.075 87.3132C117.5 87.7009 117.819 88.2154 118.032 88.8566V82.213H120.883V98.1397H118.334L118.233 95.9476C117.998 96.6932 117.64 97.2822 117.159 97.7147C116.69 98.1472 116.136 98.3634 115.499 98.3634ZM116.488 95.5673C116.958 95.5673 117.333 95.3063 117.612 94.7844C117.892 94.2624 118.032 93.4944 118.032 92.4804C118.032 91.5409 117.897 90.8176 117.629 90.3106C117.361 89.7886 116.986 89.5277 116.505 89.5277C116.013 89.5277 115.622 89.7737 115.331 90.2659C115.051 90.7431 114.911 91.5036 114.911 92.5475C114.911 93.5914 115.051 94.3594 115.331 94.8515C115.61 95.3287 115.996 95.5673 116.488 95.5673ZM127.274 91.0488C127.274 90.5268 127.162 90.1167 126.938 89.8185C126.726 89.5053 126.435 89.3487 126.066 89.3487C125.697 89.3487 125.378 89.4755 125.11 89.729C124.852 89.9676 124.673 90.4001 124.573 91.0264L122.157 90.2659C122.314 89.1921 122.728 88.3347 123.399 87.6934C124.07 87.0522 125.015 86.7316 126.234 86.7316C127.464 86.7316 128.414 87.0969 129.085 87.8276C129.767 88.5434 130.109 89.5948 130.109 90.9817V95.0752C130.109 95.6568 130.304 95.9476 130.696 95.9476C130.897 95.9476 131.059 95.9177 131.182 95.8581L131.014 98.0279C130.679 98.2367 130.271 98.341 129.79 98.341C129.264 98.341 128.811 98.2068 128.431 97.9384C128.051 97.6551 127.794 97.23 127.659 96.6634C127.425 97.245 127.05 97.6774 126.535 97.9608C126.032 98.2292 125.495 98.3634 124.925 98.3634C124.064 98.3634 123.376 98.1024 122.862 97.5805C122.359 97.0436 122.107 96.2756 122.107 95.2765C122.107 94.4712 122.286 93.8076 122.644 93.2857C123.013 92.7488 123.589 92.376 124.372 92.1672L127.274 91.3619V91.0488ZM124.925 94.9186C124.925 95.2467 125.015 95.4927 125.193 95.6568C125.372 95.8208 125.585 95.9028 125.831 95.9028C126.211 95.9028 126.547 95.7537 126.837 95.4554C127.128 95.1423 127.274 94.6576 127.274 94.0015V93.3751L125.915 93.7554C125.579 93.8449 125.328 93.9791 125.16 94.158C125.003 94.3221 124.925 94.5756 124.925 94.9186ZM134.993 98.3634C133.953 98.3634 133.114 97.8564 132.477 96.8423C131.851 95.8283 131.538 94.4116 131.538 92.5922C131.538 91.3396 131.683 90.2808 131.974 89.4158C132.276 88.536 132.69 87.8724 133.215 87.425C133.752 86.9627 134.367 86.7316 135.06 86.7316C135.653 86.7316 136.156 86.9254 136.57 87.3132C136.995 87.7009 137.314 88.2154 137.526 88.8566V82.213H140.378V98.1397H137.828L137.728 95.9476C137.493 96.6932 137.135 97.2822 136.654 97.7147C136.184 98.1472 135.631 98.3634 134.993 98.3634ZM135.983 95.5673C136.453 95.5673 136.827 95.3063 137.107 94.7844C137.386 94.2624 137.526 93.4944 137.526 92.4804C137.526 91.5409 137.392 90.8176 137.124 90.3106C136.855 89.7886 136.481 89.5277 136 89.5277C135.508 89.5277 135.116 89.7737 134.826 90.2659C134.546 90.7431 134.406 91.5036 134.406 92.5475C134.406 93.5914 134.546 94.3594 134.826 94.8515C135.105 95.3287 135.491 95.5673 135.983 95.5673ZM146.181 98.3634C144.783 98.3634 143.676 97.8564 142.86 96.8423C142.055 95.8283 141.652 94.3966 141.652 92.5475C141.652 91.3246 141.836 90.2808 142.206 89.4158C142.586 88.536 143.1 87.8724 143.749 87.425C144.409 86.9627 145.175 86.7316 146.047 86.7316C146.93 86.7316 147.68 86.9627 148.295 87.425C148.921 87.8724 149.396 88.4987 149.721 89.304C150.045 90.0944 150.207 91.004 150.207 92.033C150.207 92.3163 150.196 92.5922 150.174 92.8606C150.162 93.1142 150.151 93.3304 150.14 93.5093H144.42C144.498 94.2848 144.688 94.844 144.99 95.187C145.292 95.5151 145.689 95.6791 146.181 95.6791C146.606 95.6791 146.942 95.5673 147.188 95.3436C147.445 95.1199 147.635 94.8067 147.758 94.4041L150.039 95.4107C149.883 96.0519 149.609 96.5963 149.217 97.0436C148.837 97.4761 148.379 97.8042 147.842 98.0279C147.316 98.2516 146.763 98.3634 146.181 98.3634ZM146.047 89.3935C145.141 89.3935 144.604 90.0869 144.437 91.4738H147.506C147.383 90.0869 146.897 89.3935 146.047 89.3935ZM154.99 98.3634C154.151 98.3634 153.374 98.1845 152.658 97.8266C151.942 97.4537 151.344 96.9243 150.863 96.2384L152.205 94.1357C152.485 94.6129 152.854 95.0155 153.312 95.3436C153.782 95.6568 154.302 95.8133 154.872 95.8133C155.219 95.8133 155.504 95.7462 155.728 95.612C155.952 95.4778 156.063 95.269 156.063 94.9857C156.063 94.7918 156.008 94.6278 155.896 94.4936C155.784 94.3594 155.56 94.2475 155.225 94.158L154.05 93.8449C152.999 93.5615 152.25 93.144 151.803 92.5922C151.366 92.0255 151.148 91.2874 151.148 90.3777C151.148 89.7663 151.288 89.1847 151.568 88.6329C151.847 88.0811 152.278 87.6263 152.859 87.2684C153.441 86.9105 154.185 86.7316 155.091 86.7316C156.824 86.7316 158.088 87.3728 158.882 88.6553L157.523 90.7132C157.254 90.2659 156.908 89.9154 156.483 89.6619C156.058 89.4084 155.633 89.2816 155.208 89.2816C154.392 89.2816 153.983 89.5575 153.983 90.1093C153.983 90.3031 154.05 90.4746 154.185 90.6238C154.33 90.7729 154.593 90.8922 154.973 90.9817L156.5 91.3843C157.361 91.608 157.981 91.9957 158.362 92.5475C158.742 93.0843 158.932 93.7405 158.932 94.5159C158.932 95.6046 158.602 96.5217 157.942 97.2673C157.294 97.998 156.309 98.3634 154.99 98.3634ZM168.063 98.3634C167.224 98.3634 166.447 98.1845 165.731 97.8266C165.016 97.4537 164.417 96.9243 163.936 96.2384L165.278 94.1357C165.558 94.6129 165.927 95.0155 166.386 95.3436C166.855 95.6568 167.375 95.8133 167.946 95.8133C168.292 95.8133 168.577 95.7462 168.801 95.612C169.025 95.4778 169.137 95.269 169.137 94.9857C169.137 94.7918 169.081 94.6278 168.969 94.4936C168.857 94.3594 168.633 94.2475 168.298 94.158L167.124 93.8449C166.072 93.5615 165.323 93.144 164.876 92.5922C164.44 92.0255 164.222 91.2874 164.222 90.3777C164.222 89.7663 164.361 89.1847 164.641 88.6329C164.921 88.0811 165.351 87.6263 165.933 87.2684C166.514 86.9105 167.258 86.7316 168.164 86.7316C169.897 86.7316 171.161 87.3728 171.955 88.6553L170.596 90.7132C170.328 90.2659 169.981 89.9154 169.556 89.6619C169.131 89.4084 168.706 89.2816 168.281 89.2816C167.465 89.2816 167.057 89.5575 167.057 90.1093C167.057 90.3031 167.124 90.4746 167.258 90.6238C167.403 90.7729 167.666 90.8922 168.046 90.9817L169.573 91.3843C170.434 91.608 171.055 91.9957 171.435 92.5475C171.815 93.0843 172.005 93.7405 172.005 94.5159C172.005 95.6046 171.675 96.5217 171.015 97.2673C170.367 97.998 169.383 98.3634 168.063 98.3634ZM177.093 86.7316C177.976 86.7316 178.748 86.9627 179.408 87.425C180.079 87.8873 180.599 88.5509 180.968 89.4158C181.348 90.2808 181.538 91.3246 181.538 92.5475C181.538 93.7703 181.348 94.8142 180.968 95.6791C180.599 96.5441 180.079 97.2077 179.408 97.67C178.748 98.1323 177.976 98.3634 177.093 98.3634C176.22 98.3634 175.449 98.1323 174.778 97.67C174.118 97.2077 173.598 96.5441 173.218 95.6791C172.849 94.8142 172.664 93.7703 172.664 92.5475C172.664 91.3246 172.849 90.2808 173.218 89.4158C173.598 88.5509 174.118 87.8873 174.778 87.425C175.449 86.9627 176.22 86.7316 177.093 86.7316ZM177.093 89.4382C176.601 89.4382 176.215 89.6843 175.935 90.1764C175.667 90.6536 175.533 91.4439 175.533 92.5475C175.533 93.6361 175.667 94.4265 175.935 94.9186C176.215 95.4107 176.601 95.6568 177.093 95.6568C177.596 95.6568 177.982 95.4107 178.25 94.9186C178.53 94.4265 178.669 93.6361 178.669 92.5475C178.669 91.4439 178.53 90.6536 178.25 90.1764C177.982 89.6843 177.596 89.4382 177.093 89.4382ZM188.192 98.3634C187.509 98.3634 186.928 98.1173 186.447 97.6252C185.966 97.1331 185.619 96.4844 185.407 95.6791L185.306 98.1397H182.807V82.213H185.659V88.879C185.882 88.2377 186.212 87.7232 186.648 87.3355C187.096 86.9329 187.644 86.7316 188.292 86.7316C188.941 86.7316 189.517 86.9627 190.02 87.425C190.523 87.8873 190.92 88.5584 191.211 89.4382C191.502 90.3031 191.647 91.3545 191.647 92.5922C191.647 94.4116 191.328 95.8283 190.691 96.8423C190.054 97.8564 189.22 98.3634 188.192 98.3634ZM187.202 95.5673C187.694 95.5673 188.08 95.3287 188.359 94.8515C188.639 94.3594 188.779 93.5914 188.779 92.5475C188.779 91.5036 188.639 90.7431 188.359 90.2659C188.08 89.7737 187.694 89.5277 187.202 89.5277C186.721 89.5277 186.341 89.7961 186.061 90.333C185.793 90.8698 185.659 91.6154 185.659 92.5698C185.659 93.5392 185.798 94.2848 186.078 94.8067C186.357 95.3138 186.732 95.5673 187.202 95.5673ZM192.988 98.1397V86.9552H195.504L195.622 89.3711C195.823 88.5509 196.131 87.9097 196.544 87.4474C196.969 86.9702 197.512 86.7316 198.172 86.7316C198.384 86.7316 198.563 86.7614 198.708 86.821C198.865 86.8658 198.988 86.918 199.077 86.9776L198.792 90.1093C198.68 90.0645 198.535 90.0198 198.356 89.9751C198.188 89.9303 197.982 89.9079 197.735 89.9079C197.221 89.9079 196.774 90.1242 196.394 90.5567C196.024 90.9891 195.84 91.6378 195.84 92.5027V98.1397H192.988ZM203.856 98.3634C202.458 98.3634 201.35 97.8564 200.534 96.8423C199.729 95.8283 199.326 94.3966 199.326 92.5475C199.326 91.3246 199.511 90.2808 199.88 89.4158C200.26 88.536 200.775 87.8724 201.423 87.425C202.083 86.9627 202.849 86.7316 203.721 86.7316C204.605 86.7316 205.354 86.9627 205.969 87.425C206.595 87.8724 207.071 88.4987 207.395 89.304C207.719 90.0944 207.881 91.004 207.881 92.033C207.881 92.3163 207.87 92.5922 207.848 92.8606C207.837 93.1142 207.826 93.3304 207.814 93.5093H202.094C202.172 94.2848 202.363 94.844 202.665 95.187C202.966 95.5151 203.363 95.6791 203.856 95.6791C204.28 95.6791 204.616 95.5673 204.862 95.3436C205.119 95.1199 205.309 94.8067 205.432 94.4041L207.714 95.4107C207.557 96.0519 207.283 96.5963 206.892 97.0436C206.512 97.4761 206.053 97.8042 205.516 98.0279C204.991 98.2516 204.437 98.3634 203.856 98.3634ZM203.721 89.3935C202.815 89.3935 202.279 90.0869 202.111 91.4738H205.181C205.058 90.0869 204.571 89.3935 203.721 89.3935ZM213.605 102.837V86.9552H216.172L216.256 89.2145C216.491 88.4689 216.843 87.8724 217.313 87.425C217.794 86.9627 218.358 86.7316 219.007 86.7316C220.036 86.7316 220.863 87.2386 221.49 88.2526C222.127 89.2667 222.446 90.6834 222.446 92.5027C222.446 94.3519 222.121 95.791 221.473 96.82C220.835 97.8489 220.002 98.3634 218.973 98.3634C218.37 98.3634 217.855 98.1695 217.43 97.7818C217.005 97.3792 216.681 96.8572 216.457 96.216V102.837H213.605ZM218 95.5673C218.493 95.5673 218.878 95.3287 219.158 94.8515C219.438 94.3594 219.577 93.5914 219.577 92.5475C219.577 91.5036 219.438 90.7431 219.158 90.2659C218.89 89.7737 218.509 89.5277 218.017 89.5277C217.536 89.5277 217.156 89.7886 216.877 90.3106C216.597 90.8176 216.457 91.5632 216.457 92.5475C216.457 93.487 216.591 94.2251 216.86 94.762C217.128 95.2989 217.508 95.5673 218 95.5673ZM223.787 98.1397V86.9552H226.337L226.421 89.2145C226.678 88.3943 227.053 87.7754 227.545 87.3579C228.037 86.9403 228.619 86.7316 229.29 86.7316C230.151 86.7316 230.85 87.0671 231.386 87.7382C231.923 88.4092 232.192 89.3935 232.192 90.6909V98.1397H229.34V91.6975C229.34 90.922 229.228 90.3851 229.004 90.0869C228.781 89.7886 228.495 89.6395 228.149 89.6395C227.735 89.6395 227.377 89.8334 227.075 90.2211C226.784 90.6088 226.639 91.2725 226.639 92.212V98.1397H223.787ZM237.947 98.3634C236.549 98.3634 235.442 97.8564 234.626 96.8423C233.821 95.8283 233.418 94.3966 233.418 92.5475C233.418 91.3246 233.602 90.2808 233.972 89.4158C234.352 88.536 234.866 87.8724 235.515 87.425C236.175 86.9627 236.941 86.7316 237.813 86.7316C238.696 86.7316 239.446 86.9627 240.061 87.425C240.687 87.8724 241.162 88.4987 241.487 89.304C241.811 90.0944 241.973 91.004 241.973 92.033C241.973 92.3163 241.962 92.5922 241.94 92.8606C241.928 93.1142 241.917 93.3304 241.906 93.5093H236.186C236.264 94.2848 236.454 94.844 236.756 95.187C237.058 95.5151 237.455 95.6791 237.947 95.6791C238.372 95.6791 238.708 95.5673 238.954 95.3436C239.211 95.1199 239.401 94.8067 239.524 94.4041L241.805 95.4107C241.649 96.0519 241.375 96.5963 240.983 97.0436C240.603 97.4761 240.145 97.8042 239.608 98.0279C239.082 98.2516 238.529 98.3634 237.947 98.3634ZM237.813 89.3935C236.907 89.3935 236.37 90.0869 236.203 91.4738H239.272C239.149 90.0869 238.663 89.3935 237.813 89.3935ZM246.068 98.3634C245.218 98.3634 244.524 98.0577 243.988 97.4463C243.451 96.8349 243.182 95.8283 243.182 94.4265V86.9552H246.034V93.5317C246.034 94.2475 246.14 94.7471 246.353 95.0304C246.565 95.3138 246.867 95.4554 247.259 95.4554C247.661 95.4554 248.002 95.2616 248.282 94.8739C248.573 94.4712 248.718 93.83 248.718 92.9501V86.9552H251.57V98.1397H249.02L248.936 96.037C248.668 96.8274 248.293 97.4165 247.812 97.8042C247.331 98.177 246.75 98.3634 246.068 98.3634ZM256.806 98.3634C255.967 98.3634 255.19 98.1845 254.474 97.8266C253.758 97.4537 253.16 96.9243 252.679 96.2384L254.021 94.1357C254.301 94.6129 254.67 95.0155 255.128 95.3436C255.598 95.6568 256.118 95.8133 256.688 95.8133C257.035 95.8133 257.32 95.7462 257.544 95.612C257.768 95.4778 257.879 95.269 257.879 94.9857C257.879 94.7918 257.824 94.6278 257.712 94.4936C257.6 94.3594 257.376 94.2475 257.041 94.158L255.866 93.8449C254.815 93.5615 254.066 93.144 253.619 92.5922C253.182 92.0255 252.964 91.2874 252.964 90.3777C252.964 89.7663 253.104 89.1847 253.384 88.6329C253.663 88.0811 254.094 87.6263 254.675 87.2684C255.257 86.9105 256.001 86.7316 256.907 86.7316C258.64 86.7316 259.904 87.3728 260.698 88.6553L259.339 90.7132C259.07 90.2659 258.724 89.9154 258.299 89.6619C257.874 89.4084 257.449 89.2816 257.024 89.2816C256.208 89.2816 255.799 89.5575 255.799 90.1093C255.799 90.3031 255.866 90.4746 256.001 90.6238C256.146 90.7729 256.409 90.8922 256.789 90.9817L258.316 91.3843C259.177 91.608 259.797 91.9957 260.178 92.5475C260.558 93.0843 260.748 93.7405 260.748 94.5159C260.748 95.6046 260.418 96.5217 259.758 97.2673C259.11 97.998 258.126 98.3634 256.806 98.3634Z" fill="black"/>
</svg>
