<svg width="533" height="192" viewBox="0 0 533 192" fill="none" xmlns="http://www.w3.org/2000/svg">
<path d="M55.9421 57.0938C67.8446 57.0938 77.1186 59.9702 83.7642 65.7231C90.5089 71.3768 93.8813 79.4109 93.8813 89.8256C93.8813 100.24 90.5089 108.324 83.7642 114.077C77.1186 119.731 67.8446 122.558 55.9421 122.558H36.4517V155.289H10.8613V57.0938H55.9421ZM51.925 103.365C62.7364 103.365 68.1421 98.852 68.1421 89.8256C68.1421 80.7995 62.7364 76.2865 51.925 76.2865H36.4517V103.365H51.925Z" fill="black"/>
<path d="M184.935 57.0938V155.289H156.518L126.018 102.174L118.579 87.5939H118.43L119.025 105.745V155.289H96.4102V57.0938H124.827L155.328 110.209L162.767 124.789H162.915L162.32 106.638V57.0938H184.935Z" fill="black"/>
<path d="M224.027 125.942C212.868 125.942 204.031 122.907 197.514 116.837C191.087 110.766 187.873 102.197 187.873 91.1273C187.873 83.8073 189.346 77.5585 192.292 72.3809C195.327 67.114 199.433 63.1416 204.611 60.4635C209.878 57.6962 215.993 56.3125 222.956 56.3125C230.008 56.3125 235.989 57.6962 240.899 60.4635C245.898 63.1416 249.692 66.8909 252.28 71.7114C254.869 76.4426 256.164 81.888 256.164 88.0476C256.164 89.7437 256.074 91.3951 255.896 93.002C255.807 94.5195 255.717 95.8139 255.628 96.8852H209.967C210.592 101.527 212.11 104.875 214.52 106.928C216.93 108.892 220.099 109.874 224.027 109.874C227.419 109.874 230.097 109.204 232.061 107.865C234.114 106.526 235.632 104.652 236.614 102.241L254.825 108.267C253.575 112.105 251.388 115.364 248.263 118.042C245.228 120.631 241.568 122.595 237.283 123.934C233.088 125.273 228.669 125.942 224.027 125.942ZM222.956 72.247C215.725 72.247 211.44 76.398 210.101 84.7H234.605C233.623 76.398 229.74 72.247 222.956 72.247ZM352.096 57.6515H375.931L355.711 124.603H328.395L316.21 83.4948L304.426 124.603H277.244L256.891 57.6515H280.86L292.107 107.062L305.23 57.6515H327.726L340.714 107.062L352.096 57.6515ZM409.873 125.942C403.178 125.942 396.974 124.871 391.261 122.728C385.548 120.497 380.772 117.328 376.933 113.221L387.645 100.634C389.877 103.491 392.823 105.901 396.483 107.865C400.232 109.74 404.383 110.677 408.936 110.677C411.703 110.677 413.98 110.275 415.765 109.472C417.55 108.669 418.443 107.419 418.443 105.723C418.443 104.562 417.997 103.58 417.104 102.777C416.211 101.973 414.426 101.304 411.748 100.768L402.375 98.8937C393.984 97.1976 388.003 94.6981 384.432 91.3951C380.95 88.0029 379.21 83.5841 379.21 78.1387C379.21 74.4787 380.325 70.9972 382.557 67.6943C384.789 64.3913 388.226 61.6686 392.868 59.5262C397.51 57.3837 403.446 56.3125 410.677 56.3125C424.513 56.3125 434.601 60.1511 440.939 67.8282L430.093 80.1473C427.95 77.4692 425.183 75.3714 421.791 73.8538C418.399 72.3362 415.006 71.5775 411.614 71.5775C405.097 71.5775 401.839 73.2289 401.839 76.5319C401.839 77.6924 402.375 78.719 403.446 79.6116C404.607 80.5043 406.704 81.2185 409.739 81.7541L421.925 84.1644C428.798 85.5034 433.753 87.8244 436.788 91.1273C439.823 94.341 441.341 98.2688 441.341 102.911C441.341 109.427 438.707 114.917 433.44 119.381C428.263 123.755 420.407 125.942 409.873 125.942Z" fill="black"/>
<path d="M196.916 138.22C198.679 138.22 200.219 138.566 201.535 139.257C202.874 139.949 203.912 140.942 204.649 142.237C205.407 143.531 205.787 145.093 205.787 146.923C205.787 148.753 205.407 150.316 204.649 151.61C203.912 152.904 202.874 153.897 201.535 154.589C200.219 155.281 198.679 155.627 196.916 155.627C195.175 155.627 193.635 155.281 192.296 154.589C190.979 153.897 189.942 152.904 189.183 151.61C188.446 150.316 188.078 148.753 188.078 146.923C188.078 145.093 188.446 143.531 189.183 142.237C189.942 140.942 190.979 139.949 192.296 139.257C193.635 138.566 195.175 138.22 196.916 138.22ZM196.916 142.27C195.934 142.27 195.164 142.638 194.606 143.375C194.07 144.089 193.802 145.272 193.802 146.923C193.802 148.552 194.07 149.735 194.606 150.472C195.164 151.208 195.934 151.576 196.916 151.576C197.92 151.576 198.69 151.208 199.226 150.472C199.784 149.735 200.062 148.552 200.062 146.923C200.062 145.272 199.784 144.089 199.226 143.375C198.69 142.638 197.92 142.27 196.916 142.27ZM218.904 138.554H224.795L218.77 155.292H211.974L205.949 138.554H211.941L215.389 151.309L218.904 138.554ZM228.965 136.613C227.805 136.613 226.957 136.401 226.421 135.977C225.908 135.53 225.651 134.839 225.651 133.901C225.651 132.942 225.908 132.25 226.421 131.826C226.957 131.379 227.805 131.156 228.965 131.156C230.103 131.156 230.94 131.379 231.476 131.826C232.011 132.25 232.279 132.942 232.279 133.901C232.279 134.839 232.011 135.53 231.476 135.977C230.94 136.401 230.103 136.613 228.965 136.613ZM231.811 138.554V155.292H226.12V138.554H231.811ZM241.352 155.627C239.277 155.627 237.603 154.868 236.331 153.351C235.081 151.833 234.456 149.713 234.456 146.99C234.456 145.116 234.746 143.531 235.326 142.237C235.929 140.92 236.755 139.927 237.804 139.257C238.875 138.566 240.102 138.22 241.486 138.22C242.669 138.22 243.673 138.51 244.499 139.09C245.347 139.67 245.983 140.44 246.407 141.4V131.458H252.098V155.292H247.009L246.809 152.012C246.34 153.128 245.626 154.009 244.666 154.656C243.729 155.303 242.624 155.627 241.352 155.627ZM243.327 151.443C244.264 151.443 245.012 151.052 245.57 150.271C246.128 149.49 246.407 148.34 246.407 146.823C246.407 145.417 246.139 144.335 245.603 143.576C245.068 142.795 244.32 142.404 243.361 142.404C242.379 142.404 241.598 142.772 241.017 143.509C240.459 144.223 240.18 145.361 240.18 146.923C240.18 148.486 240.459 149.635 241.017 150.371C241.575 151.085 242.345 151.443 243.327 151.443ZM264.85 144.68C264.85 143.899 264.627 143.286 264.181 142.839C263.757 142.371 263.176 142.136 262.44 142.136C261.703 142.136 261.067 142.326 260.532 142.705C260.019 143.062 259.661 143.71 259.461 144.647L254.64 143.509C254.953 141.902 255.778 140.619 257.117 139.659C258.456 138.699 260.342 138.22 262.775 138.22C265.23 138.22 267.127 138.766 268.466 139.86C269.827 140.931 270.508 142.505 270.508 144.58V150.706C270.508 151.576 270.898 152.012 271.679 152.012C272.081 152.012 272.405 151.967 272.65 151.878L272.315 155.125C271.646 155.437 270.831 155.594 269.872 155.594C268.823 155.594 267.919 155.393 267.16 154.991C266.401 154.567 265.888 153.931 265.62 153.083C265.151 153.953 264.404 154.6 263.377 155.024C262.373 155.426 261.302 155.627 260.164 155.627C258.445 155.627 257.073 155.237 256.046 154.455C255.042 153.652 254.54 152.503 254.54 151.007C254.54 149.802 254.897 148.809 255.611 148.028C256.347 147.225 257.497 146.667 259.059 146.354L264.85 145.149V144.68ZM260.164 150.472C260.164 150.963 260.342 151.331 260.699 151.576C261.056 151.822 261.48 151.945 261.971 151.945C262.73 151.945 263.4 151.722 263.98 151.275C264.56 150.807 264.85 150.081 264.85 149.099V148.162L262.139 148.731C261.469 148.865 260.967 149.066 260.632 149.334C260.32 149.579 260.164 149.958 260.164 150.472ZM280.256 155.627C278.18 155.627 276.506 154.868 275.234 153.351C273.984 151.833 273.36 149.713 273.36 146.99C273.36 145.116 273.65 143.531 274.23 142.237C274.833 140.92 275.658 139.927 276.707 139.257C277.778 138.566 279.006 138.22 280.39 138.22C281.572 138.22 282.577 138.51 283.402 139.09C284.25 139.67 284.886 140.44 285.31 141.4V131.458H291.001V155.292H285.913L285.712 152.012C285.243 153.128 284.529 154.009 283.57 154.656C282.632 155.303 281.528 155.627 280.256 155.627ZM282.231 151.443C283.168 151.443 283.916 151.052 284.474 150.271C285.031 149.49 285.31 148.34 285.31 146.823C285.31 145.417 285.043 144.335 284.507 143.576C283.971 142.795 283.224 142.404 282.264 142.404C281.282 142.404 280.501 142.772 279.921 143.509C279.363 144.223 279.084 145.361 279.084 146.923C279.084 148.486 279.363 149.635 279.921 150.371C280.479 151.085 281.249 151.443 282.231 151.443ZM302.582 155.627C299.792 155.627 297.583 154.868 295.954 153.351C294.347 151.833 293.544 149.691 293.544 146.923C293.544 145.093 293.912 143.531 294.648 142.237C295.407 140.92 296.434 139.927 297.728 139.257C299.045 138.566 300.574 138.22 302.314 138.22C304.077 138.22 305.573 138.566 306.8 139.257C308.05 139.927 308.998 140.864 309.645 142.069C310.293 143.252 310.616 144.614 310.616 146.153C310.616 146.577 310.594 146.99 310.549 147.392C310.527 147.771 310.505 148.095 310.482 148.363H299.067C299.223 149.523 299.603 150.36 300.205 150.873C300.808 151.364 301.6 151.61 302.582 151.61C303.43 151.61 304.1 151.443 304.591 151.108C305.104 150.773 305.483 150.304 305.729 149.702L310.282 151.208C309.969 152.168 309.422 152.982 308.641 153.652C307.882 154.299 306.967 154.79 305.896 155.125C304.847 155.46 303.743 155.627 302.582 155.627ZM302.314 142.203C300.507 142.203 299.435 143.241 299.101 145.317H305.227C304.981 143.241 304.01 142.203 302.314 142.203ZM320.161 155.627C318.487 155.627 316.936 155.359 315.507 154.824C314.079 154.266 312.885 153.473 311.926 152.447L314.604 149.3C315.162 150.014 315.898 150.617 316.813 151.108C317.75 151.576 318.788 151.811 319.926 151.811C320.618 151.811 321.187 151.71 321.634 151.51C322.08 151.309 322.303 150.996 322.303 150.572C322.303 150.282 322.191 150.037 321.968 149.836C321.745 149.635 321.299 149.467 320.629 149.334L318.286 148.865C316.188 148.441 314.693 147.816 313.8 146.99C312.93 146.142 312.495 145.038 312.495 143.676C312.495 142.761 312.774 141.891 313.332 141.065C313.889 140.239 314.749 139.559 315.909 139.023C317.07 138.487 318.554 138.22 320.361 138.22C323.821 138.22 326.342 139.179 327.927 141.099L325.215 144.178C324.68 143.509 323.988 142.984 323.14 142.605C322.292 142.226 321.444 142.036 320.596 142.036C318.967 142.036 318.152 142.449 318.152 143.274C318.152 143.565 318.286 143.821 318.554 144.044C318.844 144.268 319.368 144.446 320.127 144.58L323.173 145.183C324.892 145.517 326.13 146.098 326.889 146.923C327.648 147.727 328.027 148.709 328.027 149.869C328.027 151.498 327.369 152.871 326.052 153.987C324.758 155.08 322.794 155.627 320.161 155.627ZM346.249 155.627C344.576 155.627 343.025 155.359 341.596 154.824C340.168 154.266 338.974 153.473 338.014 152.447L340.692 149.3C341.25 150.014 341.987 150.617 342.902 151.108C343.839 151.576 344.877 151.811 346.015 151.811C346.707 151.811 347.276 151.71 347.722 151.51C348.169 151.309 348.392 150.996 348.392 150.572C348.392 150.282 348.28 150.037 348.057 149.836C347.834 149.635 347.388 149.467 346.718 149.334L344.375 148.865C342.277 148.441 340.782 147.816 339.889 146.99C339.019 146.142 338.583 145.038 338.583 143.676C338.583 142.761 338.862 141.891 339.42 141.065C339.978 140.239 340.837 139.559 341.998 139.023C343.158 138.487 344.643 138.22 346.45 138.22C349.909 138.22 352.431 139.179 354.016 141.099L351.304 144.178C350.769 143.509 350.077 142.984 349.229 142.605C348.381 142.226 347.533 142.036 346.685 142.036C345.055 142.036 344.241 142.449 344.241 143.274C344.241 143.565 344.375 143.821 344.643 144.044C344.933 144.268 345.457 144.446 346.216 144.58L349.262 145.183C350.981 145.517 352.219 146.098 352.978 146.923C353.737 147.727 354.116 148.709 354.116 149.869C354.116 151.498 353.458 152.871 352.141 153.987C350.847 155.08 348.883 155.627 346.249 155.627ZM364.269 138.22C366.032 138.22 367.572 138.566 368.888 139.257C370.227 139.949 371.265 140.942 372.002 142.237C372.76 143.531 373.14 145.093 373.14 146.923C373.14 148.753 372.76 150.316 372.002 151.61C371.265 152.904 370.227 153.897 368.888 154.589C367.572 155.281 366.032 155.627 364.269 155.627C362.528 155.627 360.988 155.281 359.649 154.589C358.332 153.897 357.295 152.904 356.536 151.61C355.799 150.316 355.431 148.753 355.431 146.923C355.431 145.093 355.799 143.531 356.536 142.237C357.295 140.942 358.332 139.949 359.649 139.257C360.988 138.566 362.528 138.22 364.269 138.22ZM364.269 142.27C363.287 142.27 362.517 142.638 361.959 143.375C361.423 144.089 361.155 145.272 361.155 146.923C361.155 148.552 361.423 149.735 361.959 150.472C362.517 151.208 363.287 151.576 364.269 151.576C365.273 151.576 366.043 151.208 366.579 150.472C367.136 149.735 367.415 148.552 367.415 146.923C367.415 145.272 367.136 144.089 366.579 143.375C366.043 142.638 365.273 142.27 364.269 142.27ZM386.418 155.627C385.056 155.627 383.896 155.259 382.936 154.522C381.976 153.786 381.285 152.815 380.861 151.61L380.66 155.292H375.672V131.458H381.363V141.433C381.809 140.474 382.467 139.704 383.338 139.123C384.23 138.521 385.324 138.22 386.618 138.22C387.913 138.22 389.062 138.566 390.066 139.257C391.071 139.949 391.863 140.953 392.443 142.27C393.023 143.565 393.314 145.138 393.314 146.99C393.314 149.713 392.678 151.833 391.405 153.351C390.133 154.868 388.471 155.627 386.418 155.627ZM384.442 151.443C385.424 151.443 386.194 151.085 386.752 150.371C387.31 149.635 387.589 148.486 387.589 146.923C387.589 145.361 387.31 144.223 386.752 143.509C386.194 142.772 385.424 142.404 384.442 142.404C383.483 142.404 382.724 142.806 382.166 143.609C381.631 144.413 381.363 145.529 381.363 146.957C381.363 148.407 381.642 149.523 382.2 150.304C382.758 151.063 383.505 151.443 384.442 151.443ZM395.99 155.292V138.554H401.011L401.245 142.17C401.647 140.942 402.261 139.983 403.087 139.291C403.935 138.577 405.017 138.22 406.334 138.22C406.758 138.22 407.115 138.264 407.405 138.354C407.717 138.42 407.963 138.499 408.141 138.588L407.572 143.274C407.349 143.208 407.059 143.141 406.702 143.074C406.367 143.007 405.954 142.973 405.463 142.973C404.437 142.973 403.544 143.297 402.785 143.944C402.049 144.591 401.681 145.562 401.681 146.856V155.292H395.99ZM417.677 155.627C414.887 155.627 412.677 154.868 411.048 153.351C409.441 151.833 408.638 149.691 408.638 146.923C408.638 145.093 409.006 143.531 409.743 142.237C410.502 140.92 411.528 139.927 412.823 139.257C414.139 138.566 415.668 138.22 417.409 138.22C419.172 138.22 420.667 138.566 421.894 139.257C423.144 139.927 424.093 140.864 424.74 142.069C425.387 143.252 425.711 144.614 425.711 146.153C425.711 146.577 425.688 146.99 425.644 147.392C425.621 147.771 425.599 148.095 425.577 148.363H414.162C414.318 149.523 414.697 150.36 415.3 150.873C415.902 151.364 416.695 151.61 417.677 151.61C418.525 151.61 419.194 151.443 419.685 151.108C420.198 150.773 420.578 150.304 420.823 149.702L425.376 151.208C425.063 152.168 424.517 152.982 423.736 153.652C422.977 154.299 422.062 154.79 420.991 155.125C419.942 155.46 418.837 155.627 417.677 155.627ZM417.409 142.203C415.601 142.203 414.53 143.241 414.195 145.317H420.321C420.076 143.241 419.105 142.203 417.409 142.203ZM437.133 162.322V138.554H442.255L442.423 141.935C442.891 140.82 443.594 139.927 444.532 139.257C445.491 138.566 446.618 138.22 447.913 138.22C449.966 138.22 451.617 138.978 452.867 140.496C454.139 142.014 454.775 144.134 454.775 146.856C454.775 149.624 454.128 151.777 452.834 153.317C451.561 154.857 449.899 155.627 447.846 155.627C446.641 155.627 445.614 155.337 444.766 154.757C443.918 154.154 443.271 153.373 442.824 152.413V162.322H437.133ZM445.904 151.443C446.886 151.443 447.656 151.085 448.214 150.371C448.772 149.635 449.051 148.486 449.051 146.923C449.051 145.361 448.772 144.223 448.214 143.509C447.678 142.772 446.919 142.404 445.938 142.404C444.978 142.404 444.219 142.795 443.661 143.576C443.103 144.335 442.824 145.45 442.824 146.923C442.824 148.329 443.092 149.434 443.628 150.237C444.163 151.041 444.922 151.443 445.904 151.443ZM457.452 155.292V138.554H462.541L462.708 141.935C463.221 140.708 463.969 139.782 464.951 139.157C465.933 138.532 467.093 138.22 468.432 138.22C470.151 138.22 471.546 138.722 472.617 139.726C473.688 140.73 474.224 142.203 474.224 144.145V155.292H468.533V145.651C468.533 144.491 468.31 143.687 467.863 143.241C467.417 142.795 466.848 142.571 466.156 142.571C465.33 142.571 464.616 142.862 464.014 143.442C463.433 144.022 463.143 145.015 463.143 146.421V155.292H457.452ZM485.71 155.627C482.92 155.627 480.71 154.868 479.081 153.351C477.474 151.833 476.671 149.691 476.671 146.923C476.671 145.093 477.039 143.531 477.776 142.237C478.535 140.92 479.561 139.927 480.856 139.257C482.172 138.566 483.701 138.22 485.442 138.22C487.205 138.22 488.7 138.566 489.927 139.257C491.177 139.927 492.126 140.864 492.773 142.069C493.42 143.252 493.744 144.614 493.744 146.153C493.744 146.577 493.721 146.99 493.677 147.392C493.654 147.771 493.632 148.095 493.61 148.363H482.195C482.351 149.523 482.73 150.36 483.333 150.873C483.935 151.364 484.728 151.61 485.71 151.61C486.558 151.61 487.227 151.443 487.718 151.108C488.231 150.773 488.611 150.304 488.856 149.702L493.409 151.208C493.097 152.168 492.55 152.982 491.769 153.652C491.01 154.299 490.095 154.79 489.024 155.125C487.975 155.46 486.87 155.627 485.71 155.627ZM485.442 142.203C483.634 142.203 482.563 143.241 482.228 145.317H488.354C488.109 143.241 487.138 142.203 485.442 142.203ZM501.915 155.627C500.219 155.627 498.835 155.17 497.764 154.255C496.692 153.34 496.157 151.833 496.157 149.735V138.554H501.848V148.396C501.848 149.468 502.06 150.215 502.484 150.639C502.908 151.063 503.51 151.275 504.291 151.275C505.095 151.275 505.775 150.985 506.333 150.405C506.914 149.802 507.204 148.843 507.204 147.526V138.554H512.895V155.292H507.806L507.639 152.146C507.103 153.328 506.356 154.21 505.396 154.79C504.436 155.348 503.276 155.627 501.915 155.627ZM523.344 155.627C521.67 155.627 520.119 155.359 518.691 154.824C517.262 154.266 516.068 153.473 515.109 152.447L517.787 149.3C518.345 150.014 519.081 150.617 519.996 151.108C520.934 151.576 521.971 151.811 523.109 151.811C523.801 151.811 524.37 151.71 524.817 151.51C525.263 151.309 525.486 150.996 525.486 150.572C525.486 150.282 525.375 150.037 525.151 149.836C524.928 149.635 524.482 149.467 523.812 149.334L521.469 148.865C519.371 148.441 517.876 147.816 516.983 146.99C516.113 146.142 515.678 145.038 515.678 143.676C515.678 142.761 515.957 141.891 516.515 141.065C517.073 140.239 517.932 139.559 519.092 139.023C520.253 138.487 521.737 138.22 523.545 138.22C527.004 138.22 529.526 139.179 531.11 141.099L528.399 144.178C527.863 143.509 527.171 142.984 526.323 142.605C525.475 142.226 524.627 142.036 523.779 142.036C522.15 142.036 521.335 142.449 521.335 143.274C521.335 143.565 521.469 143.821 521.737 144.044C522.027 144.268 522.552 144.446 523.31 144.58L526.357 145.183C528.075 145.517 529.314 146.098 530.072 146.923C530.831 147.727 531.211 148.709 531.211 149.869C531.211 151.498 530.552 152.871 529.236 153.987C527.941 155.08 525.977 155.627 523.344 155.627Z" fill="black"/>
<path d="M2.27821 21V5.65693H8.32245C10.1667 5.65693 11.5151 6.02888 12.3674 6.77279C13.2198 7.51669 13.646 8.54731 13.646 9.86465C13.646 10.6705 13.4136 11.3912 12.9486 12.0266C12.4837 12.6465 11.8018 13.0418 10.9029 13.2122V13.2355C11.8948 13.406 12.6619 13.8167 13.2043 14.4676C13.7623 15.1185 14.0412 15.8779 14.0412 16.7458C14.0412 18.0631 13.5608 19.1015 12.5999 19.8609C11.639 20.6203 10.2442 21 8.41544 21H2.27821ZM4.71916 12.2591H8.13648C10.0892 12.2591 11.0656 11.5074 11.0656 10.0041C11.0656 8.50082 10.0892 7.74916 8.13648 7.74916H4.71916V12.2591ZM4.71916 18.931H8.53168C9.50806 18.931 10.2365 18.7295 10.7169 18.3266C11.2128 17.9236 11.4608 17.358 11.4608 16.6295C11.4608 15.9011 11.2128 15.3355 10.7169 14.9325C10.2365 14.5296 9.50806 14.3281 8.53168 14.3281H4.71916V18.931ZM21.971 21.2325C20.8087 21.2325 19.7858 20.9923 18.9024 20.5118C18.0345 20.0314 17.3526 19.3417 16.8567 18.4428C16.3607 17.5284 16.1128 16.4436 16.1128 15.1882C16.1128 13.9329 16.353 12.8558 16.8334 11.9569C17.3294 11.0425 18.0035 10.3451 18.8559 9.86465C19.7238 9.38421 20.7157 9.14399 21.8315 9.14399C22.9629 9.14399 23.9238 9.37646 24.7142 9.8414C25.5046 10.3063 26.109 10.9418 26.5275 11.7477C26.9459 12.5536 27.1551 13.4679 27.1551 14.4908C27.1551 14.7853 27.1474 15.0565 27.1319 15.3045C27.1164 15.5524 27.0931 15.7617 27.0621 15.9321H18.5537C18.6622 17.017 19.0109 17.8461 19.5998 18.4196C20.2043 18.9775 20.9792 19.2565 21.9245 19.2565C22.6994 19.2565 23.3271 19.1092 23.8076 18.8148C24.288 18.5203 24.6677 18.1096 24.9467 17.5827L26.9227 18.5126C26.5197 19.365 25.8765 20.0314 24.9932 20.5118C24.1253 20.9923 23.1179 21.2325 21.971 21.2325ZM21.7851 11.12C20.9327 11.12 20.2275 11.368 19.6696 11.8639C19.1271 12.3598 18.7784 13.0805 18.6235 14.0259H24.7374C24.6754 13.096 24.381 12.3831 23.854 11.8871C23.3271 11.3757 22.6374 11.12 21.7851 11.12ZM29.8314 21V9.37646H32.0399L32.1562 11.3292C32.5591 10.5853 33.0938 10.0351 33.7602 9.67867C34.4421 9.32222 35.1628 9.14399 35.9222 9.14399C36.7591 9.14399 37.5262 9.33772 38.2236 9.72517C38.9366 10.0971 39.4712 10.6628 39.8277 11.4222C40.0757 10.9108 40.4166 10.4846 40.8506 10.1436C41.2845 9.80266 41.7649 9.55469 42.2919 9.39971C42.8188 9.22923 43.338 9.14399 43.8494 9.14399C44.5933 9.14399 45.2908 9.29897 45.9417 9.60893C46.5926 9.91889 47.1195 10.3916 47.5225 11.027C47.9254 11.6624 48.1269 12.4761 48.1269 13.4679V21H45.6395V13.8631C45.6395 12.9023 45.407 12.2204 44.9421 11.8174C44.4926 11.399 43.9269 11.1897 43.245 11.1897C42.4391 11.1897 41.734 11.4919 41.1295 12.0964C40.5251 12.6853 40.2229 13.5454 40.2229 14.6768V21H37.7355V13.8631C37.7355 12.9023 37.503 12.2204 37.038 11.8174C36.5886 11.399 36.0229 11.1897 35.341 11.1897C34.8761 11.1897 34.4111 11.3137 33.9462 11.5617C33.4812 11.8097 33.0938 12.1971 32.7838 12.724C32.4739 13.251 32.3189 13.9484 32.3189 14.8163V21H29.8314ZM59.4533 13.7237V16.0251H51.5261V13.7237H59.4533ZM70.0356 9.37646H72.6393L68.0131 21H65.2932L60.6438 9.37646H63.387L66.6648 18.838L70.0356 9.37646ZM75.5505 7.42371C75.008 7.42371 74.5896 7.29197 74.2951 7.02851C74.0162 6.74954 73.8767 6.36209 73.8767 5.86615C73.8767 5.37021 74.0162 4.99051 74.2951 4.72704C74.5896 4.46358 75.008 4.33184 75.5505 4.33184C76.0774 4.33184 76.4803 4.46358 76.7593 4.72704C77.0538 4.99051 77.201 5.37021 77.201 5.86615C77.201 6.36209 77.0538 6.74954 76.7593 7.02851C76.4803 7.29197 76.0774 7.42371 75.5505 7.42371ZM76.7826 9.37646V21H74.2951V9.37646H76.7826ZM80.2095 21V9.37646H82.418L82.5342 11.3757C82.9217 10.6008 83.4563 10.0351 84.1383 9.67867C84.8357 9.32222 85.6106 9.14399 86.463 9.14399C87.2844 9.14399 88.0205 9.30672 88.6714 9.63218C89.3379 9.94214 89.8648 10.4226 90.2522 11.0735C90.6397 11.7089 90.8334 12.5071 90.8334 13.4679V21H88.346V14.2351C88.346 13.0882 88.1058 12.2978 87.6253 11.8639C87.1604 11.4145 86.5714 11.1897 85.8585 11.1897C85.3471 11.1897 84.8512 11.306 84.3707 11.5384C83.8903 11.7709 83.4873 12.1584 83.1619 12.7008C82.8519 13.2277 82.6969 13.9329 82.6969 14.8163V21H80.2095ZM98.6012 21.2325C97.6403 21.2325 96.7724 20.9923 95.9975 20.5118C95.2226 20.0314 94.6027 19.3417 94.1378 18.4428C93.6883 17.5439 93.4636 16.4668 93.4636 15.2115C93.4636 13.9096 93.7038 12.8093 94.1843 11.9104C94.6647 11.0115 95.3079 10.3296 96.1138 9.86465C96.9197 9.38421 97.8031 9.14399 98.7639 9.14399C99.6008 9.14399 100.329 9.34546 100.949 9.74841C101.585 10.1359 102.057 10.655 102.367 11.306V4.14587H104.855V21H102.646L102.507 18.7915C102.197 19.5664 101.685 20.1709 100.972 20.6048C100.26 21.0232 99.4691 21.2325 98.6012 21.2325ZM99.1359 19.2332C100.112 19.2332 100.895 18.8613 101.484 18.1174C102.073 17.3735 102.367 16.3506 102.367 15.0487C102.367 13.8399 102.073 12.8945 101.484 12.2126C100.91 11.5152 100.159 11.1665 99.2289 11.1665C98.1905 11.1665 97.3846 11.5229 96.8112 12.2359C96.2378 12.9488 95.951 13.9329 95.951 15.1882C95.951 16.4436 96.23 17.4354 96.7879 18.1639C97.3459 18.8768 98.1285 19.2332 99.1359 19.2332ZM113.292 9.14399C114.424 9.14399 115.423 9.38421 116.291 9.86465C117.159 10.3451 117.833 11.0425 118.314 11.9569C118.81 12.8558 119.058 13.9329 119.058 15.1882C119.058 16.4436 118.81 17.5284 118.314 18.4428C117.833 19.3417 117.159 20.0314 116.291 20.5118C115.423 20.9923 114.424 21.2325 113.292 21.2325C112.161 21.2325 111.161 20.9923 110.293 20.5118C109.426 20.0314 108.744 19.3417 108.248 18.4428C107.752 17.5284 107.504 16.4436 107.504 15.1882C107.504 13.9329 107.752 12.8558 108.248 11.9569C108.744 11.0425 109.426 10.3451 110.293 9.86465C111.161 9.38421 112.161 9.14399 113.292 9.14399ZM113.292 11.0967C112.269 11.0967 111.464 11.4532 110.875 12.1661C110.286 12.8635 109.991 13.8709 109.991 15.1882C109.991 16.5056 110.286 17.5207 110.875 18.2336C111.464 18.931 112.269 19.2797 113.292 19.2797C114.315 19.2797 115.113 18.931 115.687 18.2336C116.276 17.5207 116.57 16.5056 116.57 15.1882C116.57 13.8709 116.276 12.8635 115.687 12.1661C115.113 11.4532 114.315 11.0967 113.292 11.0967ZM135.535 13.5377C135.535 12.7628 135.318 12.1661 134.884 11.7477C134.466 11.3137 133.885 11.0967 133.141 11.0967C132.443 11.0967 131.839 11.2595 131.327 11.5849C130.832 11.9104 130.475 12.4373 130.258 13.1657L128.166 12.2823C128.46 11.337 129.034 10.5776 129.886 10.0041C130.754 9.4307 131.87 9.14399 133.234 9.14399C134.148 9.14399 134.962 9.29897 135.675 9.60893C136.403 9.90339 136.969 10.3606 137.372 10.9805C137.79 11.5849 137.999 12.3521 137.999 13.282V18.4661C137.999 19.0395 138.286 19.3262 138.86 19.3262C139.138 19.3262 139.41 19.2875 139.673 19.21L139.534 20.9303C139.177 21.1007 138.728 21.186 138.185 21.186C137.565 21.186 137.031 21.0465 136.581 20.7675C136.132 20.4886 135.83 20.0701 135.675 19.5122C135.303 20.0856 134.768 20.5196 134.071 20.814C133.373 21.093 132.676 21.2325 131.978 21.2325C130.878 21.2325 129.964 20.969 129.235 20.4421C128.507 19.9151 128.143 19.1247 128.143 18.0709C128.143 17.2185 128.422 16.5133 128.98 15.9554C129.553 15.3975 130.359 15.01 131.397 14.793L135.535 13.9794V13.5377ZM130.653 17.8849C130.653 18.3188 130.816 18.6675 131.141 18.931C131.482 19.179 131.932 19.303 132.49 19.303C133.017 19.303 133.513 19.2177 133.978 19.0472C134.443 18.8768 134.815 18.5978 135.093 18.2104C135.388 17.8229 135.535 17.3192 135.535 16.6993V15.7229L132.606 16.3273C131.94 16.4513 131.444 16.6295 131.118 16.862C130.808 17.0945 130.653 17.4354 130.653 17.8849ZM146.632 9.14399C147.763 9.14399 148.763 9.38421 149.631 9.86465C150.499 10.3451 151.173 11.0425 151.653 11.9569C152.149 12.8558 152.397 13.9329 152.397 15.1882C152.397 16.4436 152.149 17.5284 151.653 18.4428C151.173 19.3417 150.499 20.0314 149.631 20.5118C148.763 20.9923 147.763 21.2325 146.632 21.2325C145.5 21.2325 144.501 20.9923 143.633 20.5118C142.765 20.0314 142.083 19.3417 141.587 18.4428C141.091 17.5284 140.843 16.4436 140.843 15.1882C140.843 13.9329 141.091 12.8558 141.587 11.9569C142.083 11.0425 142.765 10.3451 143.633 9.86465C144.501 9.38421 145.5 9.14399 146.632 9.14399ZM146.632 11.0967C145.609 11.0967 144.803 11.4532 144.214 12.1661C143.625 12.8635 143.331 13.8709 143.331 15.1882C143.331 16.5056 143.625 17.5207 144.214 18.2336C144.803 18.931 145.609 19.2797 146.632 19.2797C147.655 19.2797 148.453 18.931 149.026 18.2336C149.615 17.5207 149.91 16.5056 149.91 15.1882C149.91 13.8709 149.615 12.8635 149.026 12.1661C148.453 11.4532 147.655 11.0967 146.632 11.0967Z" fill="black"/>
</svg>
